<?xml version="1.0" encoding="UTF-8"?><svg id="Layer_1" xmlns="http://www.w3.org/2000/svg" viewBox="0 0 281.66 71.36"><defs><style>.cls-1{fill:#2f66cf;}</style></defs><path d="M260.56,63.48c2.07,0,6.21-.98,8.3-1.86,4.94-2.08,5.31-5,7.53-2.4l2.87,3.35c.37.43.74,1.1.66,1.66-2.16,1.82-4.31,3.44-6.9,4.43l-3.02,1.16c-2.29.88-9.19,1.87-11.39,1.45l-5.9-1.13c-8.01-2.14-14.12-8.33-16.2-16.34l-.76-4.75c-.52-3.23-.09-6.63.84-9.77l.61-2.04c1.04-3.5,3.06-6.5,5.6-9.16l1.85-1.65c2.32-2.07,8.7-4.72,11.58-4.72h6.2c1.32,0,2.6.34,3.83.77l3.25,1.17c4.55,1.91,7.87,5.57,9.83,10.04l.99,2.56.76,2.7.53,4.3.04,4.78c0,.6-1.16.87-1.7.88l-13.55.09h-13.41s-7.5-.09-7.5-.09c-.76,1.44-.18,2.67.25,4,.37,1.15.72,2.21,1.36,3.27,1.46,2.41,3.66,4.23,6.17,5.51,1.93.99,5.09,1.79,7.29,1.79ZM260.5,41.95l10.64-.09c.47,0,1.15-.23,1.51-.47l-.58-2.95c-.95-3.37-3.39-6.2-6.44-7.78-1.36-.71-2.69-1.21-4.16-1.21h-4.03c-2.67-.01-6,1.89-7.98,3.95-1.31,1.37-2.65,2.78-3.27,4.61l-.52,1.52c-.26.75-.42,1.38-.21,2.28l9.08.13h5.96Z"/><path d="M53.2,32.23c-6.04-4.98-17.41-2.68-20.26,4.89-.51,1.37-1.01,2.6-1.01,4.08v27.88c0,.5-.68,1.18-1.06,1.18h-7.72c-.24-.41-.71-1.14-.71-1.59l.12-34.6.12-10.06c0-.34.1-.91.28-1.12.2-.24.84-.41,1.22-.41l6.36.05c2.08.02.51,3.24,1.64,5.85l3.46-3.26c4.14-3.08,9.29-4.13,14.37-3.61,1.92.2,3.64.47,5.47,1.24,4.57,1.9,8.75,5.92,9.99,10.83.56,2.22,1.15,4.47,1.15,6.81v23.98s-.13,4.54-.13,4.54c-.03.92-.7,1.36-1.54,1.35l-6.88-.05c-.46,0-.86-1.05-.86-1.55l-.07-28.5c0-3.22-1.57-5.97-3.98-7.96Z"/><path d="M92.52,31.38l-.18,2.37-.15,29.08-.12,5.67c-.01.59-.13,1.25-.5,1.76l-7.65-.02c-.39,0-.89-.92-.89-1.36V31.36c0-.82-.73-.92-1.28-.95l-2.29-.15-2.99.02c-.64,0-2.21.43-2.34-.66-.23-1.83-.09-3.85-.14-5.82-.02-.69.42-1.28,1.16-1.28l6.14-.03c.55,0,1.69-.52,1.7-1.09l.14-5.93.71-4.31c.1-.6.35-1.24.56-1.81.76-2.08,1.67-4.02,3.34-5.46C91.08,1.01,94.49.06,98.88,0c2.06-.03,3.86.19,5.83.84.39.13,1.05.37,1.2.67.19.39.1,1.05,0,1.52l-.81,3.65-.61,2.05c-.28.17-1.18.12-1.5,0-2.94-1.1-6.19-.69-8.55,1.41-2.56,2.29-2.25,7.34-2.09,11.15.01.31.51.86.72,1.06s.92-.01,1.23,0c1.89.12,3.65.3,5.55-.05l18.72.08,5.38.17c.78.02,1.17.75,1.22,1.42l.19,2.26.24,2.92c.03.36-.27,1.28-.77,1.28h-31.23c-.65,0-1.04.24-1.1.96Z"/><path d="M147.6,31.01c-2.88,1.38-4.99,3.75-5.96,6.65l-.9,3.58v28.07s-.6.96-.6.96h-7.81c-.16-.08-.62-.69-.62-.98V23.41c0-.46.93-.91,1.32-.91l6.8.03c.82,0,.91,1.15.92,1.67l.11,4.37c1.06-.44,1.36-.92,1.96-1.6,1.35-1.52,3.15-2.61,4.92-3.63,3.51-2.01,10.76-2.53,14.33-1.23l2.11.77c4.21,1.86,7.43,5.42,8.81,9.85.6,1.92,1.2,3.98,1.2,6.06l.04,30.33c0,.64-.52,1.15-1.11,1.15h-7.45c-.25-.42-.69-1.12-.69-1.58v-28.55s-.91-3.78-.91-3.78c-.74-3.09-4.4-6.14-7.54-6.48s-5.96-.29-8.93,1.14Z"/><path d="M231.12,62.58l.52,3.5.38,2.92c-1.6,1.17-3.38,1.52-5.34,1.76-1.52.18-3.11.55-4.6.3l-4.42-.75c-.7-.12-1.78-.64-2.42-.98-3.49-1.86-5.66-5.09-6.29-8.92l-.37-2.25-.12-8.78v-3.8s.09-14.04.09-14.04c0-.32-.37-1.08-.66-1.08l-5.93-.03c-.98,0-1.47-1.19-1.35-1.95.54-3.55-.39-5.9,1.4-5.92l5.84-.05c.33-.34.7-1.07.7-1.53v-10.51c.33-.24.96-.49,1.29-.49h6.91c.36,0,.85.47.85.86l-.02,10.58c.26.35.76.86,1.11,1.13l11.24-.03c.7,0,1.13.37,1.12,1.1l-.04,5.89c-.18.41-1.08.94-1.52.94h-10.58c-.75,0-1.28.63-1.28,1.28v1.38s.06,12.4.06,12.4l.02,6.21c-.25,2.43-.18,4.79.5,7.14.71,2.47,3.64,3.79,6.43,3.76,1.74-.01,3.35-.11,4.92-.86.65-.31,1.43.05,1.54.84Z"/><path d="M8.85,70.26H.48c-.19-.27-.48-.82-.48-1.18V3.4c0-.84.6-1.34,1.41-1.34l6.97-.03c.39,0,.86.88.86,1.37v64.81c0,.75-.13,1.28-.39,2.05Z"/><path d="M184.7,66.97l-.03-9.59v-10.36s0-6.81,0-6.81v-8.6s.06-7.32.06-7.32c0-.34-.22-1.05,0-1.26s.83-.47,1.15-.49l3.32-.2,3.33-.06c.38,0,1.1.44,1.52.74v45.65c0,.51-.66,1.54-1.11,1.57l-7.65.02c-1.02-.85-.59-2.12-.59-3.28Z"/><path d="M121.15,68.38c0,.84-.27,1.55-.89,1.87h-7.12c-.24,0-1.05-.59-1.05-.93v-29.14c.43-.49,1.14-.78,1.74-.76l5.24.16c.61.02,1.97-.3,2,.79l.18,6.44c.11,3.84.03,7.61,0,11.46l-.1,10.12Z"/><path d="M188.46,13.27c-1.94-.24-3.33-1.16-4.14-2.63-.72-1.3-1.14-2.57-.7-4.06.29-.99.67-2.08,1.37-2.78,2.34-2.33,6-2.79,8.37-.46,2.01,1.98,2.35,4.6.94,7.1-1.11,1.98-3.58,3.1-5.83,2.82Z"/><path d="M122.55,8.72c-.79,3.37-3.26,4.92-6.5,4.49-1.83-.24-3.68-1.49-4.41-3.42-.95-2.53-.32-5.33,1.88-6.72,2.54-1.61,5.48-1.45,7.65.79,1.11,1.14,1.76,3.2,1.37,4.87Z"/><rect class="cls-1" x="73.97" y="21.39" width="51.65" height="9.12"/></svg>